<mxfile host="app.diagrams.net" modified="2024-05-20T21:26:14.600Z" agent="Mozilla/5.0 (Macintosh; Intel Mac OS X 10_15_7) AppleWebKit/605.1.15 (KHTML, like Gecko) Version/17.4.1 Safari/605.1.15" etag="nG7sHR7siHAm1wihVeW-" version="24.4.4" type="gitlab">
  <diagram name="Page-1" id="QhCGsGqXWCHpddmefYZB">
    <mxGraphModel dx="861" dy="622" grid="1" gridSize="10" guides="1" tooltips="1" connect="1" arrows="1" fold="1" page="1" pageScale="1" pageWidth="827" pageHeight="1169" math="0" shadow="0">
      <root>
        <mxCell id="0" />
        <mxCell id="1" parent="0" />
        <mxCell id="ApZRqCsXt8-wkduerYo3-1" value="" style="whiteSpace=wrap;html=1;aspect=fixed;" vertex="1" parent="1">
          <mxGeometry x="80" y="210" width="80" height="80" as="geometry" />
        </mxCell>
        <mxCell id="ApZRqCsXt8-wkduerYo3-2" value="" style="whiteSpace=wrap;html=1;aspect=fixed;" vertex="1" parent="1">
          <mxGeometry x="240" y="210" width="80" height="80" as="geometry" />
        </mxCell>
        <mxCell id="ApZRqCsXt8-wkduerYo3-4" value="" style="whiteSpace=wrap;html=1;aspect=fixed;" vertex="1" parent="1">
          <mxGeometry x="400" y="210" width="80" height="80" as="geometry" />
        </mxCell>
        <mxCell id="ApZRqCsXt8-wkduerYo3-6" value="" style="shape=cylinder3;whiteSpace=wrap;html=1;boundedLbl=1;backgroundOutline=1;size=15;" vertex="1" parent="1">
          <mxGeometry x="680" y="210" width="60" height="80" as="geometry" />
        </mxCell>
        <mxCell id="ApZRqCsXt8-wkduerYo3-8" value="" style="image;sketch=0;aspect=fixed;html=1;points=[];align=center;fontSize=12;image=img/lib/mscae/Cache_Redis_Product.svg;" vertex="1" parent="1">
          <mxGeometry x="350" y="430" width="50" height="42" as="geometry" />
        </mxCell>
      </root>
    </mxGraphModel>
  </diagram>
</mxfile>
